# xmcd CD database file
#
# Track frame offsets:
#	150
#	19507
#	35989
#	51836
#	70503
#	85770
#	100242
#	121488
#	142708
#	157723
#	175847
#	197006
#	220855
#
# Disc length: 3168 seconds
#
# Revision: 2
# Processed by: cddbd v1.5.2PL0 Copyright (c) Steve Scherf et al.
# Submitted via: CDex 1.70beta2
#
DISCID=a30c5e0d
DTITLE=STONE SOUR - come what (ever) may
DYEAR=2006
DGENRE=Heavy Metal
TTITLE0=30/30-150
TTITLE1=Come What (Ever) May
TTITLE2=Hell ＆ Consequence
TTITLE3=Sillyworld
TTITLE4=Made Of Scars
TTITLE5=Reborn
TTITLE6=Your God
TTITLE7=Through Glass
TTITLE8=Socio
TTITLE9=1st Person
TTITLE10=Cardiff
TTITLE11=Zzyzx Rd.
TTITLE12=Suffer [Bonus Track]
EXTD=YEAR: 2006
EXTT0=
EXTT1=
EXTT2=
EXTT3=
EXTT4=
EXTT5=
EXTT6=
EXTT7=
EXTT8=
EXTT9=
EXTT10=
EXTT11=
EXTT12=
PLAYORDER=
